<svg width="48" height="28" viewBox="0 0 48 28" fill="none" xmlns="http://www.w3.org/2000/svg">
<path d="M4 14C4 8.47715 8.47715 4 14 4H34C39.5228 4 44 8.47715 44 14C44 19.5228 39.5228 24 34 24H14C8.47715 24 4 19.5228 4 14Z" fill="#D5D5D5"/>
<g clip-path="url(#clip0_7611_1719)">
<path d="M8 14C8 10.6863 10.6863 8 14 8C17.3137 8 20 10.6863 20 14C20 17.3137 17.3137 20 14 20C10.6863 20 8 17.3137 8 14Z" fill="white"/>
</g>
<defs>
<clipPath id="clip0_7611_1719">
<path d="M8 14C8 10.6863 10.6863 8 14 8C17.3137 8 20 10.6863 20 14C20 17.3137 17.3137 20 14 20C10.6863 20 8 17.3137 8 14Z" fill="white"/>
</clipPath>
</defs>
</svg>
