<svg width="24" height="24" viewBox="0 0 24 24" fill="none" xmlns="http://www.w3.org/2000/svg">
<path fill-rule="evenodd" clip-rule="evenodd" d="M9.92372 6.24166C11.8855 4.36378 15.0576 4.36378 17.0194 6.24166C18.9935 8.13135 18.9935 11.2046 17.0194 13.0943L11.7207 18.1663C10.3273 19.5 8.07688 19.5 6.6835 18.1663C5.27779 16.8207 5.27779 14.6297 6.6835 13.2841L11.906 8.28506C12.7309 7.49541 14.0597 7.49542 14.8847 8.28506C15.7219 9.08651 15.7219 10.3954 14.8847 11.1968L9.62408 16.2323C9.4246 16.4233 9.10809 16.4164 8.91714 16.2169C8.72619 16.0174 8.73311 15.7009 8.93259 15.5099L14.1932 10.4744C14.6191 10.0667 14.6191 9.41515 14.1932 9.00745C13.7549 8.58795 13.0357 8.58795 12.5975 9.00745L7.37499 14.0065C6.38063 14.9583 6.38063 16.4921 7.37499 17.4439C8.38168 18.4075 10.0225 18.4075 11.0292 17.4439L16.3279 12.3719C17.8907 10.8759 17.8907 8.45998 16.3279 6.96405C14.7528 5.45632 12.1903 5.45632 10.6152 6.96405L6.34574 11.0509C6.14626 11.2418 5.82975 11.2349 5.63881 11.0354C5.44786 10.8359 5.45478 10.5194 5.65426 10.3285L9.92372 6.24166Z" fill="black"/>
</svg>
