<svg width="32" height="32" viewBox="0 0 32 32" fill="none" xmlns="http://www.w3.org/2000/svg">
<path fill-rule="evenodd" clip-rule="evenodd" d="M17.7818 1.66666H20.8844C22.4776 1.66665 23.7446 1.66664 24.7607 1.76325C25.8025 1.86231 26.6834 2.06996 27.4681 2.55083C28.2754 3.04556 28.9542 3.72435 29.4489 4.53168C29.9298 5.31639 30.1375 6.19727 30.2365 7.23913C30.3331 8.25521 30.3331 9.52216 30.3331 11.1154V12.203C30.3331 13.3371 30.3331 14.2391 30.2832 14.9706C30.2322 15.7188 30.1256 16.3612 29.8764 16.9628C29.2674 18.433 28.0994 19.601 26.6292 20.21C26.1237 20.4194 25.5848 20.5293 24.9743 20.5892C24.9672 20.775 24.9582 20.9515 24.9468 21.1196C24.8926 21.9143 24.7796 22.5915 24.5177 23.2237C23.8749 24.7756 22.642 26.0085 21.0902 26.6513C20.2943 26.9809 19.4165 27.0775 18.3127 27.1128C17.7188 27.1318 17.3391 27.1449 17.0507 27.1801C16.778 27.2133 16.6757 27.2578 16.6204 27.2905C16.5589 27.3268 16.4741 27.3935 16.3261 27.5972C16.1663 27.8173 15.9854 28.121 15.6987 28.6052L15.3528 29.1896C14.4502 30.7146 12.2161 30.7146 11.3135 29.1896L10.9676 28.6052C10.6809 28.121 10.5 27.8173 10.3402 27.5972C10.1922 27.3935 10.1074 27.3268 10.0459 27.2905C9.99057 27.2578 9.88825 27.2133 9.6156 27.1801C9.3272 27.1449 8.94754 27.1318 8.35361 27.1128C7.24976 27.0775 6.37199 26.9809 5.57617 26.6513C4.02433 26.0085 2.79139 24.7756 2.1486 23.2237C1.88673 22.5915 1.77379 21.9143 1.71957 21.1196C1.66649 20.3417 1.6665 19.3815 1.6665 18.1699V17.0151C1.66649 15.313 1.66649 13.9643 1.76923 12.8836C1.87443 11.7772 2.09436 10.849 2.59978 10.0242C3.122 9.172 3.83849 8.4555 4.69068 7.93328C5.51546 7.42785 6.44366 7.20793 7.55009 7.10273C7.83135 7.07598 8.13077 7.05621 8.44986 7.04157C8.55656 6.08179 8.76928 5.26272 9.21726 4.53168C9.71199 3.72435 10.3908 3.04556 11.1981 2.55083C11.9828 2.06996 12.8637 1.86231 13.9055 1.76325C14.9216 1.66664 16.1886 1.66665 17.7818 1.66666ZM10.4709 7.00159C10.8533 6.99999 11.2564 7 11.6816 7H14.9848C16.6869 6.99999 18.0356 6.99998 19.1163 7.10273C20.2227 7.20793 21.1509 7.42785 21.9757 7.93328C22.8279 8.4555 23.5443 9.172 24.0666 10.0242C24.572 10.849 24.7919 11.7772 24.8971 12.8836C24.9999 13.9642 24.9998 15.313 24.9998 17.0151V18.1699C24.9998 18.3076 24.9998 18.4422 24.9998 18.5735C25.367 18.5259 25.6348 18.4571 25.8638 18.3623C26.8439 17.9563 27.6226 17.1776 28.0286 16.1975C28.16 15.8802 28.2437 15.4808 28.2878 14.8344C28.3326 14.1791 28.3331 13.3452 28.3331 12.1667V11.1667C28.3331 9.51061 28.332 8.33877 28.2455 7.42843C28.1604 6.53298 27.9996 5.99432 27.7437 5.57668C27.4138 5.03845 26.9613 4.58593 26.4231 4.25611C26.0055 4.00017 25.4668 3.83942 24.5713 3.75427C23.661 3.66772 22.4892 3.66666 20.8331 3.66666H17.8331C16.177 3.66666 15.0052 3.66772 14.0949 3.75427C13.1994 3.83942 12.6608 4.00017 12.2431 4.25611C11.7049 4.58593 11.2524 5.03845 10.9225 5.57668C10.7085 5.92603 10.5629 6.35583 10.4709 7.00159ZM7.7394 9.09375C6.77937 9.18503 6.1934 9.35807 5.73568 9.63856C5.15261 9.99587 4.66237 10.4861 4.30506 11.0692C4.02457 11.5269 3.85153 12.1129 3.76025 13.0729C3.66756 14.0478 3.6665 15.3015 3.6665 17.0667V18.1334C3.6665 19.3896 3.66705 20.2816 3.71493 20.9835C3.7622 21.6763 3.85226 22.1105 3.99636 22.4584C4.43617 23.5201 5.27976 24.3637 6.34155 24.8035C6.78712 24.9881 7.3612 25.08 8.41755 25.1138L8.45901 25.1152C8.99955 25.1324 9.46971 25.1474 9.85776 25.1948C10.2715 25.2452 10.6779 25.3406 11.0641 25.5691C11.4442 25.7939 11.7187 26.092 11.9583 26.4219C12.18 26.7271 12.4084 27.113 12.6673 27.5505L13.0346 28.1709C13.0951 28.2732 13.2008 28.3333 13.3331 28.3333C13.4655 28.3333 13.5712 28.2732 13.6317 28.1709L13.999 27.5504C14.2579 27.113 14.4863 26.7271 14.7079 26.4219C14.9476 26.092 15.2221 25.7939 15.6022 25.5691C15.9884 25.3406 16.3949 25.2452 16.8085 25.1948C17.1966 25.1474 17.6667 25.1324 18.2073 25.1152L18.2488 25.1138C19.3051 25.08 19.8792 24.9881 20.3248 24.8035C21.3866 24.3637 22.2302 23.5201 22.67 22.4584C22.8141 22.1105 22.9041 21.6763 22.9514 20.9835C22.9993 20.2816 22.9998 19.3896 22.9998 18.1334V17.0667C22.9998 15.3015 22.9988 14.0478 22.9061 13.0729C22.8148 12.1129 22.6418 11.5269 22.3613 11.0692C22.004 10.4861 21.5137 9.99587 20.9307 9.63856C20.4729 9.35807 19.887 9.18503 18.9269 9.09375C17.952 9.00105 16.6984 9 14.9332 9H11.7332C9.96798 9 8.71431 9.00105 7.7394 9.09375Z" fill="#03AB35"/>
<path d="M9.99984 17.3333C9.99984 18.0697 9.40288 18.6667 8.6665 18.6667C7.93013 18.6667 7.33317 18.0697 7.33317 17.3333C7.33317 16.597 7.93013 16 8.6665 16C9.40288 16 9.99984 16.597 9.99984 17.3333Z" fill="#03AB35"/>
<path d="M14.6665 17.3333C14.6665 18.0697 14.0696 18.6667 13.3332 18.6667C12.5968 18.6667 11.9998 18.0697 11.9998 17.3333C11.9998 16.597 12.5968 16 13.3332 16C14.0696 16 14.6665 16.597 14.6665 17.3333Z" fill="#03AB35"/>
<path d="M19.3332 17.3333C19.3332 18.0697 18.7362 18.6667 17.9998 18.6667C17.2635 18.6667 16.6665 18.0697 16.6665 17.3333C16.6665 16.597 17.2635 16 17.9998 16C18.7362 16 19.3332 16.597 19.3332 17.3333Z" fill="#03AB35"/>
</svg>
