<svg width="24" height="24" viewBox="0 0 24 24" fill="none" xmlns="http://www.w3.org/2000/svg">
<g clip-path="url(#clip0_7584_762)">
<path fill-rule="evenodd" clip-rule="evenodd" d="M8.57302 4.83332C8.59285 4.83332 8.61296 4.83332 8.63334 4.83332L8.658 4.83332C8.89228 4.83331 9.04305 4.8333 9.19044 4.84708C9.82463 4.90638 10.4262 5.15556 10.9166 5.56206C11.0305 5.65654 11.1371 5.76316 11.3028 5.92884L11.6871 6.3131C12.2509 6.87691 12.4676 7.08738 12.718 7.22668C12.8634 7.30754 13.0175 7.3714 13.1775 7.41699C13.453 7.49554 13.7551 7.49999 14.5525 7.49999L14.8355 7.49999C15.6841 7.49998 16.3683 7.49997 16.9095 7.56802C17.4705 7.63854 17.9471 7.78903 18.3386 8.14121C18.4042 8.20019 18.4666 8.2626 18.5256 8.32818C18.8778 8.71975 19.0283 9.19637 19.0988 9.75732C19.1669 10.2986 19.1669 10.9827 19.1668 11.8313V13.3709C19.1669 14.5961 19.1669 15.5665 19.0647 16.326C18.9597 17.1076 18.7383 17.7403 18.2393 18.2392C17.7404 18.7381 17.1078 18.9595 16.3262 19.0646C15.5667 19.1667 14.5963 19.1667 13.3711 19.1667H10.6292C9.40406 19.1667 8.43364 19.1667 7.67416 19.0646C6.89254 18.9595 6.25991 18.7381 5.761 18.2392C5.26209 17.7403 5.04068 17.1076 4.9356 16.326C4.83349 15.5665 4.8335 14.5961 4.83351 13.3709L4.83351 8.63316C4.83351 8.61277 4.8335 8.59267 4.8335 8.57284C4.83343 8.04223 4.83338 7.70455 4.88841 7.41288C5.1301 6.1319 6.13208 5.12991 7.41306 4.88823C7.70473 4.8332 8.04242 4.83324 8.57302 4.83332ZM8.63334 5.83332C8.02224 5.83332 7.78598 5.83551 7.59847 5.87089C6.72201 6.03625 6.03644 6.72182 5.87107 7.59828C5.83569 7.7858 5.83351 8.02206 5.83351 8.63316V13.3333C5.83351 14.6045 5.83457 15.5076 5.92668 16.1928C6.01686 16.8635 6.18597 17.2499 6.46811 17.5321C6.75025 17.8142 7.13668 17.9833 7.80741 18.0735C8.49252 18.1656 9.39563 18.1667 10.6668 18.1667H13.3335C14.6047 18.1667 15.5078 18.1656 16.1929 18.0735C16.8637 17.9833 17.2501 17.8142 17.5322 17.5321C17.8144 17.2499 17.9835 16.8635 18.0737 16.1928C18.1658 15.5076 18.1668 14.6045 18.1668 13.3333V11.8653C18.1668 10.9747 18.1659 10.3536 18.1066 9.88206C18.0489 9.42297 17.9429 9.17569 17.7821 8.99691C17.7467 8.95756 17.7093 8.92011 17.6699 8.88472C17.4911 8.72392 17.2439 8.61793 16.7848 8.56021C16.3132 8.50092 15.6921 8.49999 14.8016 8.49999H14.5525C14.5277 8.49999 14.5032 8.5 14.479 8.5C13.7803 8.50014 13.3298 8.50023 12.9033 8.37869C12.6696 8.31205 12.4442 8.21872 12.2318 8.10054C11.8444 7.88496 11.5258 7.56631 11.0319 7.0722C11.0148 7.05508 10.9975 7.03775 10.98 7.02021L10.6131 6.65338C10.4243 6.46452 10.352 6.39298 10.2784 6.33194C9.94285 6.0538 9.53125 5.88331 9.09733 5.84274C9.00209 5.83383 8.90042 5.83332 8.63334 5.83332ZM12.1668 10.6667C12.1668 10.3905 12.3907 10.1667 12.6668 10.1667H16.0002C16.2763 10.1667 16.5002 10.3905 16.5002 10.6667C16.5002 10.9428 16.2763 11.1667 16.0002 11.1667H12.6668C12.3907 11.1667 12.1668 10.9428 12.1668 10.6667Z" fill="black"/>
</g>
<defs>
<clipPath id="clip0_7584_762">
<rect width="16" height="16" fill="white" transform="translate(4 4)"/>
</clipPath>
</defs>
</svg>
