<svg width="16" height="16" viewBox="0 0 16 16" fill="none" xmlns="http://www.w3.org/2000/svg">
<path fill-rule="evenodd" clip-rule="evenodd" d="M2.1665 6.76219C2.1665 3.49618 4.76985 0.833328 7.99984 0.833328C11.2298 0.833328 13.8332 3.49618 13.8332 6.76219C13.8332 8.33892 13.3838 10.0319 12.5895 11.4946C11.7961 12.9554 10.6369 14.2248 9.18684 14.9026C8.43355 15.2547 7.56613 15.2547 6.81283 14.9026C5.36275 14.2248 4.20358 12.9554 3.41021 11.4946C2.61586 10.0319 2.1665 8.33892 2.1665 6.76219ZM7.99984 1.83333C5.33879 1.83333 3.1665 4.03165 3.1665 6.76219C3.1665 8.16024 3.56826 9.69027 4.28897 11.0173C5.01066 12.3462 6.03052 13.4331 7.23627 13.9967C7.72121 14.2233 8.27847 14.2233 8.76341 13.9967C9.96916 13.4331 10.989 12.3462 11.7107 11.0173C12.4314 9.69027 12.8332 8.16024 12.8332 6.76219C12.8332 4.03165 10.6609 1.83333 7.99984 1.83333ZM7.99984 5.16666C7.17141 5.16666 6.49984 5.83823 6.49984 6.66666C6.49984 7.49509 7.17141 8.16666 7.99984 8.16666C8.82826 8.16666 9.49984 7.49509 9.49984 6.66666C9.49984 5.83823 8.82826 5.16666 7.99984 5.16666ZM5.49984 6.66666C5.49984 5.28595 6.61912 4.16666 7.99984 4.16666C9.38055 4.16666 10.4998 5.28595 10.4998 6.66666C10.4998 8.04737 9.38055 9.16666 7.99984 9.16666C6.61912 9.16666 5.49984 8.04737 5.49984 6.66666Z" fill="black"/>
</svg>
