<svg width="32" height="32" viewBox="0 0 32 32" fill="none" xmlns="http://www.w3.org/2000/svg">
<path d="M17.6796 2.50685C17.7679 1.96166 18.2833 1.59183 18.8285 1.6801C18.8622 1.68656 18.9708 1.70685 19.0277 1.71952C19.1415 1.74486 19.3002 1.78387 19.4981 1.8415C19.8938 1.95676 20.4466 2.14663 21.1101 2.45081C22.4384 3.05982 24.2062 4.12516 26.0406 5.95956C27.875 7.79396 28.9403 9.56171 29.5493 10.8901C29.8535 11.5536 30.0434 12.1064 30.1586 12.5021C30.2163 12.7 30.2553 12.8587 30.2806 12.9724C30.2933 13.0293 30.3025 13.075 30.309 13.1087L30.3167 13.1503C30.4049 13.6955 30.0385 14.2322 29.4933 14.3205C28.9497 14.4085 28.4375 14.0404 28.3471 13.4978C28.3443 13.4833 28.3367 13.4441 28.3284 13.4072C28.312 13.3333 28.2835 13.2162 28.2384 13.0614C28.1482 12.7516 27.9915 12.2912 27.7313 11.7236C27.2115 10.5898 26.2768 9.02426 24.6264 7.37377C22.9759 5.72329 21.4103 4.78863 20.2765 4.26886C19.709 4.00865 19.2485 3.85194 18.9388 3.76171C18.7839 3.7166 18.5892 3.67192 18.5154 3.65547C17.9727 3.56504 17.5916 3.05048 17.6796 2.50685Z" fill="#03AB35"/>
<path fill-rule="evenodd" clip-rule="evenodd" d="M17.9813 7.10614C18.133 6.5751 18.6865 6.26761 19.2176 6.41934L18.9428 7.38086C19.2176 6.41934 19.2176 6.41934 19.2176 6.41934L19.2195 6.41989L19.2215 6.42048L19.226 6.42177L19.2363 6.42486L19.2627 6.43308C19.2828 6.43951 19.3079 6.44788 19.3378 6.4585C19.3977 6.47975 19.4769 6.50997 19.5739 6.55158C19.7682 6.63482 20.0336 6.76338 20.3596 6.95633C21.0122 7.34258 21.9031 7.98415 22.9498 9.03078C23.9964 10.0774 24.638 10.9683 25.0242 11.6209C25.2172 11.947 25.3457 12.2124 25.429 12.4066C25.4706 12.5037 25.5008 12.5828 25.522 12.6427C25.5327 12.6727 25.541 12.6978 25.5475 12.7179L25.5557 12.7442L25.5588 12.7546L25.5601 12.759L25.5607 12.7611C25.5607 12.7611 25.5612 12.763 24.5997 13.0377L25.5612 12.763C25.7129 13.294 25.4054 13.8475 24.8744 13.9992C24.3479 14.1497 23.7993 13.8487 23.6421 13.3259L23.6372 13.3115C23.6301 13.2915 23.6154 13.2521 23.5907 13.1945C23.5414 13.0793 23.4519 12.891 23.3031 12.6396C23.0058 12.1373 22.4688 11.3783 21.5356 10.445C20.6023 9.51172 19.8433 8.97478 19.341 8.67749C19.0895 8.52866 18.9012 8.4392 18.7861 8.38987C18.7285 8.36518 18.689 8.35047 18.669 8.34336L18.6546 8.33843C18.1319 8.18126 17.8309 7.63266 17.9813 7.10614Z" fill="#03AB35"/>
<path fill-rule="evenodd" clip-rule="evenodd" d="M6.67676 5.87587C8.91685 3.63578 12.697 3.80607 14.2568 6.6009L15.1222 8.15147C16.1407 9.97656 15.7067 12.2793 14.2156 13.7886C14.1957 13.8158 14.0905 13.9691 14.0774 14.2368C14.0606 14.5786 14.182 15.369 15.4066 16.5935C16.6308 17.8177 17.421 17.9394 17.7629 17.9228C18.0309 17.9097 18.1843 17.8044 18.2115 17.7845C19.7208 16.2935 22.0236 15.8594 23.8487 16.878L25.3992 17.7433C28.1941 19.3031 28.3644 23.0833 26.1243 25.3234C24.926 26.5216 23.3328 27.5862 21.4606 27.6572C18.686 27.7624 14.079 27.0459 9.51663 22.4835C4.95425 17.9211 4.23773 13.3141 4.34292 10.5396C4.41389 8.6673 5.47855 7.07408 6.67676 5.87587ZM12.5104 7.57556C11.7117 6.14443 9.56542 5.81564 8.09098 7.29008C7.05718 8.32388 6.38509 9.46496 6.34148 10.6153C6.25376 12.9291 6.82502 16.9635 10.9308 21.0693C15.0367 25.1751 19.071 25.7464 21.3848 25.6586C22.5352 25.615 23.6763 24.9429 24.71 23.9091C26.1845 22.4347 25.8557 20.2885 24.4246 19.4898L22.874 18.6244C21.9095 18.0861 20.5546 18.2697 19.6035 19.2208C19.5101 19.3142 18.9154 19.8691 17.8601 19.9204C16.7798 19.9729 15.4722 19.4875 13.9924 18.0078C12.5121 16.5275 12.0269 15.2195 12.0798 14.139C12.1314 13.0837 12.6864 12.4895 12.7793 12.3967C13.7303 11.4456 13.914 10.0907 13.3757 9.12613L12.5104 7.57556Z" fill="#03AB35"/>
</svg>
