<svg width="20" height="20" viewBox="0 0 20 20" fill="none" xmlns="http://www.w3.org/2000/svg">
<path d="M15.5296 13.0585L16.9599 8.76742C18.2095 5.01876 18.8343 3.14443 17.8449 2.15504C16.8555 1.16565 14.9812 1.79043 11.2325 3.03998L6.94139 4.47035C3.91587 5.47886 2.4031 5.98311 1.97322 6.72257C1.56427 7.42602 1.56427 8.29482 1.97322 8.99828C2.4031 9.73773 3.91587 10.242 6.94139 11.2505C7.31635 11.3755 7.73818 11.2862 8.01895 11.0081L12.607 6.46254C12.8651 6.20682 13.2816 6.20876 13.5374 6.46687C13.7931 6.72499 13.7912 7.14154 13.533 7.39727L9.0191 11.8694C8.70963 12.176 8.61167 12.6453 8.74943 13.0585C9.75793 16.084 10.2622 17.5968 11.0016 18.0267C11.7051 18.4357 12.5739 18.4357 13.2774 18.0267C14.0168 17.5968 14.5211 16.084 15.5296 13.0585Z" fill="white"/>
</svg>
